<svg width="128" height="128" xmlns="http://www.w3.org/2000/svg"><path fill="none" d="M-1-1h130v130H-1z"/><g><g stroke="null"><path fill="#1572B6" d="M21.28 111.388L11.776 4.77h104.45l-9.515 106.6-42.774 11.86z"/><path fill="#33A9DC" d="M64 114.165l34.563-9.582 8.132-91.094H64z"/><path fill="#FFF" d="M64 52.115h17.303l1.195-13.39H64V25.65H96.79l-.314 3.507-3.214 36.034H64z"/><path fill="#EBEBEB" d="M64.08 86.075l-.06.016L49.46 82.16l-.93-10.428H35.402l1.83 20.53 26.786 7.436.06-.016z"/><path fill="#FFF" d="M80.192 64.638l-1.575 17.51-14.584 3.938V99.69l26.807-7.43.197-2.208 2.274-25.414z"/><path fill="#EBEBEB" d="M64.046 25.65v13.075H32.462l-.264-2.94-.596-6.628-.312-3.508zM64 52.117v13.075H49.622l-.262-2.94-.596-6.628-.313-3.508z"/></g></g></svg>