<svg width="128" height="128" xmlns="http://www.w3.org/2000/svg" preserveAspectRatio="xMidYMid"><path fill="none" d="M-1-1h130v130H-1z"/><g><path stroke="null" fill="#222" d="M3.794 73.885V60.308h16.952v-.794H3.794V47.127h18.024v-.794H3V74.68h18.977v-.795H3.794zm33.468-19.612l-7.027 9.25-6.87-9.25h-1.03l7.423 9.846-8.138 10.56h.952l7.663-9.965 7.702 9.964h.992l-8.18-10.56 7.464-9.847h-.952zm4.05 27.394V68.963h.078c.477 1.852 1.416 3.34 2.82 4.466 1.402 1.124 3.19 1.686 5.36 1.686 1.402 0 2.646-.284 3.73-.853 1.086-.57 1.992-1.344 2.72-2.323.728-.98 1.284-2.117 1.668-3.414.383-1.297.575-2.66.575-4.09 0-1.534-.198-2.95-.595-4.247-.397-1.298-.973-2.423-1.727-3.376-.754-.953-1.667-1.694-2.74-2.223-1.07-.528-2.28-.793-3.63-.793-1.033 0-1.993.152-2.88.456-.886.305-1.674.735-2.362 1.29-.688.557-1.283 1.212-1.786 1.966-.503.753-.887 1.58-1.152 2.48h-.08v-5.717h-.793v27.394h.794zm8.257-7.305c-2.49 0-4.487-.854-5.996-2.56-1.51-1.708-2.263-4.163-2.263-7.365 0-1.324.186-2.58.557-3.772.37-1.19.906-2.236 1.608-3.136.7-.9 1.568-1.616 2.6-2.145 1.032-.53 2.197-.794 3.494-.794 1.322 0 2.48.266 3.473.795.992.53 1.813 1.25 2.46 2.164.65.912 1.14 1.957 1.47 3.135.33 1.178.496 2.428.496 3.752 0 1.19-.153 2.375-.457 3.553-.305 1.178-.774 2.236-1.41 3.176-.635.94-1.45 1.707-2.44 2.303-.994.594-2.19.892-3.594.892zm13.06.317V63.126c0-1.112.16-2.197.477-3.256.317-1.058.807-1.99 1.47-2.798.66-.807 1.5-1.442 2.52-1.905 1.02-.464 2.23-.655 3.632-.576v-.793c-1.218-.027-2.284.106-3.197.397-.913.29-1.7.688-2.362 1.19-.66.504-1.19 1.093-1.587 1.768s-.688 1.396-.873 2.163h-.08v-5.042h-.794V74.68h.794zm9.092-10.045h17.07c.054-1.403-.085-2.752-.416-4.05-.33-1.296-.86-2.447-1.588-3.453-.728-1.006-1.667-1.813-2.82-2.422-1.15-.61-2.52-.913-4.108-.913-1.138 0-2.25.238-3.334.715-1.086.476-2.038 1.17-2.86 2.084-.82.913-1.48 2.03-1.984 3.355-.503 1.324-.754 2.833-.754 4.526 0 1.51.172 2.918.516 4.23.344 1.31.873 2.447 1.588 3.413.715.965 1.634 1.713 2.76 2.242 1.124.53 2.48.78 4.068.754 2.33 0 4.288-.655 5.876-1.965s2.528-3.155 2.82-5.537h-.795c-.343 2.25-1.223 3.937-2.64 5.062-1.415 1.124-3.195 1.687-5.34 1.687-1.455 0-2.685-.252-3.69-.754-1.007-.503-1.827-1.19-2.463-2.065-.635-.873-1.105-1.9-1.41-3.077-.303-1.177-.47-2.454-.495-3.83zM88 63.84H71.72c.08-1.428.344-2.712.794-3.85.45-1.138 1.04-2.11 1.766-2.918.728-.807 1.575-1.422 2.54-1.846.967-.423 2.006-.635 3.118-.635 1.323 0 2.488.246 3.493.735 1.006.49 1.847 1.158 2.52 2.005.676.847 1.186 1.833 1.53 2.958.344 1.125.516 2.31.516 3.553zm17.27-3.532h.793c0-2.276-.662-3.93-1.985-4.963-1.324-1.032-3.123-1.548-5.4-1.548-1.27 0-2.342.16-3.215.476-.874.318-1.588.728-2.144 1.23-.557.504-.954 1.06-1.192 1.668-.238.61-.357 1.193-.357 1.748 0 1.112.2 2 .596 2.66.397.662 1.02 1.178 1.866 1.55.582.263 1.244.5 1.985.713.74.213 1.6.438 2.58.676.874.212 1.734.424 2.58.635.848.213 1.596.498 2.244.855.65.357 1.18.814 1.59 1.37.41.555.615 1.283.615 2.183 0 .874-.206 1.615-.616 2.223-.41.61-.934 1.106-1.57 1.49-.634.384-1.342.662-2.123.834-.78.172-1.542.258-2.283.258-2.408 0-4.254-.536-5.538-1.608-1.284-1.072-1.925-2.76-1.925-5.062h-.793c0 2.567.694 4.447 2.084 5.638 1.39 1.19 3.448 1.786 6.174 1.786.874 0 1.754-.1 2.64-.298.887-.198 1.68-.522 2.382-.972.702-.45 1.27-1.032 1.708-1.747.436-.716.655-1.59.655-2.62 0-.98-.193-1.775-.577-2.383-.384-.61-.887-1.112-1.51-1.51-.62-.396-1.322-.707-2.103-.932-.78-.225-1.568-.443-2.362-.655-1.112-.29-2.084-.543-2.918-.754-.834-.212-1.608-.463-2.322-.755-.69-.29-1.238-.707-1.648-1.25-.41-.542-.615-1.316-.615-2.322 0-.185.053-.516.158-.992.106-.477.358-.96.755-1.45s1.005-.926 1.826-1.31c.82-.383 1.945-.575 3.374-.575.98 0 1.873.107 2.68.32.808.21 1.502.548 2.085 1.01.582.464 1.032 1.053 1.35 1.768.317.714.476 1.588.476 2.62zm18.38 0h.794c0-2.276-.66-3.93-1.985-4.963-1.324-1.032-3.124-1.548-5.4-1.548-1.27 0-2.342.16-3.216.476-.873.318-1.588.728-2.144 1.23-.556.504-.953 1.06-1.19 1.668-.24.61-.358 1.193-.358 1.748 0 1.112.198 2 .595 2.66.397.662 1.02 1.178 1.866 1.55.583.263 1.244.5 1.985.713.742.213 1.602.438 2.58.676.874.212 1.735.424 2.582.635.846.213 1.594.498 2.243.855.648.357 1.177.814 1.588 1.37.41.555.616 1.283.616 2.183 0 .874-.205 1.615-.615 2.223-.41.61-.932 1.106-1.568 1.49-.635.384-1.343.662-2.124.834-.78.172-1.54.258-2.282.258-2.41 0-4.255-.536-5.54-1.608-1.282-1.072-1.924-2.76-1.924-5.062h-.794c0 2.567.695 4.447 2.084 5.638 1.39 1.19 3.448 1.786 6.174 1.786.873 0 1.753-.1 2.64-.298.886-.198 1.68-.522 2.382-.972.7-.45 1.27-1.032 1.707-1.747.437-.716.655-1.59.655-2.62 0-.98-.192-1.775-.576-2.383-.383-.61-.886-1.112-1.508-1.51-.622-.396-1.324-.707-2.104-.932-.78-.225-1.57-.443-2.363-.655-1.112-.29-2.085-.543-2.92-.754-.832-.212-1.606-.463-2.32-.755-.69-.29-1.238-.707-1.65-1.25-.41-.542-.614-1.316-.614-2.322 0-.185.053-.516.16-.992.105-.477.356-.96.753-1.45.396-.49 1.005-.926 1.825-1.31.82-.383 1.946-.575 3.375-.575.98 0 1.872.107 2.68.32.807.21 1.502.548 2.084 1.01.582.464 1.032 1.053 1.35 1.768.317.714.476 1.588.476 2.62z"/></g></svg>