<svg width="128" height="128" xmlns="http://www.w3.org/2000/svg" preserveAspectRatio="xMinYMin meet"><path fill="none" d="M-1-1h130v130H-1z"/><g><path stroke="null" fill="#D34A47" d="M79.188 122.75l1.197-19.948 3.306-5.643s-7.523 3.077-20.12 3.077c-12.596 0-20.005-3.02-20.005-3.02l3.704 6.154 1.31 19.38c0 2.08 6.852 3.763 15.304 3.763s15.304-1.684 15.304-3.762m-3.776-93.16l2.513-9.932L91.84 5.015 88.173 1.89 73.44 17.49l-2.918 11.867a195.486 195.486 0 0 0-6.59-.11c-15.516 0-28.095 1.768-28.095 3.95 0 2.18 12.58 3.95 28.095 3.95 15.516 0 28.095-1.77 28.095-3.95 0-1.607-6.822-2.99-16.615-3.606"/><path stroke="null" fill="#FFF" d="M73.95 35.153s-.544.122-2.145.13c-1.602.006-2.74-.01-3.192-.424-.12-.11-.188-.33-.187-.48 0-.284.202-.45.46-.555l.24.38c-.104.036-.165.08-.165.125 0 .216 1.638.363 2.892.347 1.253-.015 2.767-.12 2.768-.33 0-.065-.114-.125-.313-.173l.24-.378c.326.1.61.296.61.633-.005.572-.734.66-1.207.723"/><path stroke="null" fill="#D34A47" d="M91.813 5.044c.35-.404-.18-1.438-1.186-2.308-1.005-.87-2.104-1.25-2.454-.845-.35.406.18 1.44 1.186 2.31 1.004.87 2.103 1.25 2.453.844M78.52 74.024c-.33-3.174 6.94-7.77 5.074-7.917-4.017.23-6.016 4.707-8.037 9.397-.74 1.72-3.275 9.048-4.937 8.145-1.66-.902 2.154-6.93 3.224-10.508-1.234.905-5.76 4.42-6.926 1.128-1.875 1.592-5.882 2.455-5.43-1.728-.998 1.767-3.237 4.234-5.924 3.21-3.53-1.347 2.045-12.59 3.43-12.022 1.387.567-.28 3.128-.715 4.122-.96 2.19-2.07 4.94-1.33 5.503 1.27.965 4.722-3.65 4.8-3.75.645-.854 2.485-6.435 3.967-5.795 1.483.64-3.698 8.01-1.76 9.472.39.296 1.988-.182 2.96-1.234.63-.68.413-2.188 2.51-7.19 2.098-5 3.967-11.23 5.406-10.754 1.438.474.252 3.67-.264 4.862C72.147 64.56 67.96 73.8 69.935 73.1c1.974-.7 3.002-.74 4.936-3.003 1.934-2.262 1.845-5.99 3.133-5.91 1.29.08 1.073 1.274.76 2.184 1.27-1.45 6.013-4.508 7.16-1.48 1.355 3.585-6.79 8.763-4.758 8.5 1.98-.26 5.187-2.29 6.557-4.138l3.77-33.89s-3.794 3.14-27.927 3.14-27.534-3.075-27.534-3.075l3.21 30.934c1.703-4.84 5.748-14.633 12.125-14.305 2.9.15 6.772 5.735 3.456 5.924-1.404.08-1.547-2.79-3.21-3.21-1.2-.304-2.87.672-3.95 1.728-2.15 2.107-6.78 10.42-6.17 14.563.78 5.284 7.29-1.835 8.393-3.948.776-1.49 1.3-5.9 2.997-5.437 1.697.462-.148 5.015-1.378 9.04-1.382 4.52-2.11 9.287-3.84 8.738-1.733-.548 1.09-6.382.987-7.405-1.628 1.503-4.628 5.305-8.465 3.423l1.993 19.21s5.3 4.186 21.256 4.186c15.958 0 21.452-4.12 21.452-4.12l2.475-22.25c-2.025 1.972-8.434 5.474-8.844 1.527"/></g></svg>