<svg width="128" height="128" xmlns="http://www.w3.org/2000/svg"><path fill="none" d="M-1-1h130v130H-1z"/><g><g stroke="null"><path fill="#E44F26" d="M21.69 110.934L12.275 5.338h103.45l-9.424 105.58-42.363 11.744z"/><path fill="#F1662A" d="M64 113.685l34.232-9.49 8.054-90.223H64z"/><path fill="#EBEBEB" d="M64 53.136H46.863l-1.184-13.26H64V26.922H31.525l.31 3.475 3.183 35.69H64zM64 86.77l-.057.016-14.423-3.894-.923-10.33H35.596l1.814 20.335 26.53 7.365.06-.017z"/><path fill="#FFF" d="M63.955 53.136v12.95h15.948L78.4 82.884l-14.445 3.9v13.473l26.55-7.36.195-2.186 3.043-34.096.316-3.478h-3.49zM63.955 26.923V39.875H95.238l.26-2.91.59-6.567.31-3.475z"/></g></g></svg>