<svg width="128" height="128" xmlns="http://www.w3.org/2000/svg"><path fill="none" d="M-1-1h130v130H-1z"/><g><g stroke="null" fill="#8a4182" fill-rule="nonzero"><path d="M37.106 67.602c.022.965.614 1.952 1.71 1.952.66 0 1.142-.307 1.47-.855.308-.55.308-1.36.308-1.976V58.85h-1.71v-2.5h6.382v2.5h-1.69v8.247c0 1.404-.087 2.5-1.074 3.64-.877 1.01-2.303 1.58-3.663 1.58-2.81 0-4.96-1.864-4.85-4.715h3.116M55.224 66.088c0-1.93-1.6-3.488-3.532-3.488-1.996 0-3.53 1.646-3.53 3.62 0 1.908 1.6 3.488 3.487 3.488 2.016 0 3.574-1.624 3.574-3.62zm-.044 4.343c-.855 1.295-2.237 1.888-3.773 1.888-3.356 0-6.01-2.786-6.01-6.098 0-3.4 2.72-6.23 6.142-6.23 1.512 0 2.83.702 3.64 1.974v-1.667h4.19v2.5H57.9v6.713h1.47v2.5h-4.19v-1.58M62.9 68.61c.09 1.054.79 1.755 1.888 1.755.81 0 1.6-.57 1.6-1.447 0-1.163-1.096-1.36-1.995-1.6-2.04-.528-4.278-1.164-4.278-3.73 0-2.238 1.887-3.532 3.97-3.532 1.053 0 1.996.22 2.655 1.053v-.813h1.974v3.18h-2.59c-.043-.833-.68-1.38-1.512-1.38-.724 0-1.492.416-1.492 1.227 0 1.097 1.075 1.338 1.93 1.536 2.106.482 4.366 1.14 4.366 3.773 0 2.37-1.996 3.685-4.19 3.685-1.185 0-2.26-.373-3.027-1.272v.965h-2.04v-3.4h2.74M71.653 62.798H70.14v-2.5h3.948v1.754c.746-1.228 1.886-2.04 3.378-2.04 1.623 0 2.983.987 3.64 2.457.637-1.493 2.216-2.458 3.84-2.458 1.272 0 2.522.527 3.377 1.492.922 1.075.922 2.237.922 3.575v4.43h1.513v2.5h-5.703v-2.5h1.514v-3.773c0-.768 0-1.447-.352-2.128-.44-.636-1.163-.966-1.908-.966-.724 0-1.514.308-1.975.878-.548.702-.548 1.36-.548 2.215v3.773H83.3v2.5h-5.703v-2.5h1.514v-3.597c0-.702 0-1.58-.35-2.194-.373-.703-1.14-1.076-1.93-1.076-.746 0-1.382.264-1.865.856-.592.724-.636 1.49-.636 2.39v3.62h1.512v2.5H70.14v-2.5h1.513v-6.712M95.825 59.18H93.15v-2.83h2.675v2.83zm0 10.33h1.513v2.5h-5.725v-2.5h1.536v-6.712h-1.515v-2.5h4.19v9.212M99.663 62.798H98.15v-2.5h4.19v1.666c.7-1.294 2.017-1.93 3.465-1.93 1.272 0 2.522.527 3.378 1.448.965 1.075.987 2.106.987 3.444v4.584h1.513v2.5h-5.702v-2.5h1.514v-3.795c0-.724 0-1.47-.46-2.106-.483-.636-1.273-.943-2.063-.943-.81 0-1.644.33-2.126.986-.505.658-.505 1.667-.505 2.457v3.4h1.513v2.5H98.15v-2.5h1.513v-6.712M121.75 65.1c-.46-1.688-1.95-2.763-3.684-2.763-1.58 0-3.093 1.23-3.422 2.764h7.107zm2.04 3.467c-.92 2.237-3.09 3.75-5.526 3.75-3.422 0-6.164-2.675-6.164-6.12 0-3.465 2.61-6.25 6.098-6.25 1.623 0 3.246.723 4.387 1.886 1.163 1.228 1.645 2.72 1.645 4.387l-.088.943h-9.476c.35 1.623 1.843 2.808 3.51 2.808 1.163 0 2.17-.438 2.83-1.403h2.785M16.7 61.59h2.17l.54-.74v-5.817h-3.25v5.816l.54.74M15.3 64.185l.67-2.064-.54-.742L9.9 59.58l-1.005 3.09 5.532 1.8.872-.285M17.334 66.318l-1.756-1.277-.873.285-3.42 4.706 2.63 1.91 3.42-4.705v-.917M19.99 65.04l-1.756 1.277v.918l3.42 4.705 2.628-1.91-3.42-4.705-.87-.284M19.598 62.12l.67 2.065.873.283 5.533-1.797-1.004-3.09-5.533 1.798-.54.742"/><path d="M17.785 49.985c-7.728 0-14.015 6.286-14.015 14.013 0 7.73 6.287 14.017 14.015 14.017 7.727 0 14.013-6.288 14.013-14.017 0-7.727-6.286-14.013-14.013-14.013zm0 2.837c6.17 0 11.175 5.003 11.175 11.176 0 6.174-5.004 11.18-11.175 11.18-6.174 0-11.178-5.006-11.178-11.18 0-6.173 5.004-11.176 11.178-11.176"/><path d="M26.273 67.113l-4.205-1.367.278-.856 4.205 1.366-.277.857M20.91 60.362l-.728-.53 2.598-3.576.73.53-2.6 3.576M14.703 60.33l-2.598-3.577.728-.53 2.6 3.577-.73.53M9.278 67.06L9 66.2l4.204-1.365.278.856-4.204 1.366M17.306 72.932h.9v-4.42h-.9v4.42z"/></g></g></svg>