<svg width="128" height="128" xmlns="http://www.w3.org/2000/svg"><path fill="none" d="M-1-1h130v130H-1z"/><g><path stroke="null" fill="#f7df1e" d="M0 0h128v128H0z"/><path stroke="null" d="M85.983 100c2.58 4.21 5.933 7.305 11.866 7.305 4.983 0 8.167-2.49 8.167-5.933 0-4.125-3.272-5.585-8.757-7.985l-3.007-1.29c-8.68-3.698-14.446-8.33-14.446-18.123 0-9.02 6.873-15.888 17.615-15.888 7.648 0 13.146 2.66 17.108 9.63l-9.367 6.014c-2.062-3.698-4.287-5.155-7.74-5.155-3.524 0-5.757 2.235-5.757 5.155 0 3.608 2.235 5.07 7.396 7.304l3.007 1.288c10.22 4.383 15.99 8.85 15.99 18.896 0 10.83-8.508 16.76-19.933 16.76-11.17 0-18.387-5.322-21.918-12.3l9.773-5.677zm-42.49 1.043c1.89 3.352 3.61 6.186 7.742 6.186 3.95 0 6.444-1.547 6.444-7.56V58.773h12.027v41.062c0 12.455-7.302 18.123-17.96 18.123-9.63 0-15.208-4.984-18.044-10.987l9.79-5.927z"/></g></svg>