<svg width="128" height="128" xmlns="http://www.w3.org/2000/svg"><path fill="none" d="M-1-1h130v130H-1z"/><g><g stroke="null"><path fill="#fade42" d="M4.5 38.273h51.453v51.453H4.5z"/><path d="M51.742 77.455c-.377-2.348-1.908-4.318-6.442-6.158-1.574-.724-3.33-1.242-3.854-2.435-.186-.695-.21-1.086-.093-1.507.338-1.365 1.967-1.79 3.258-1.398.833.278 1.62.92 2.094 1.94 2.22-1.437 2.216-1.427 3.766-2.415-.567-.88-.87-1.286-1.242-1.663-1.335-1.493-3.155-2.26-6.065-2.202-.504.063-1.012.132-1.516.195-1.453.367-2.837 1.13-3.648 2.152-2.438 2.764-1.743 7.6 1.22 9.592 2.92 2.19 7.21 2.69 7.758 4.74.533 2.508-1.844 3.32-4.206 3.032-1.74-.364-2.71-1.25-3.757-2.858-1.927 1.115-1.927 1.115-3.908 2.254.47 1.028.964 1.493 1.75 2.383 3.73 3.78 13.056 3.594 14.728-2.13.07-.194.52-1.505.157-3.525zM32.472 61.92h-4.814c0 4.158-.02 8.286-.02 12.444 0 2.646.138 5.07-.292 5.815-.704 1.46-2.53 1.28-3.36.997-.847-.416-1.278-1.008-1.776-1.844-.137-.24-.24-.425-.274-.44-1.306.797-2.607 1.6-3.913 2.397.65 1.335 1.61 2.494 2.837 3.247 1.835 1.1 4.3 1.438 6.877.846 1.677-.49 3.125-1.502 3.883-3.042 1.096-2.02.86-4.465.85-7.17.025-4.41.002-8.822.002-13.25z" fill="#424242"/><g fill="#424242"><path d="M61.288 61.853h4.896v12.17H76.36v-12.17h4.895v23.78H76.36v-7.24H66.184v7.24h-4.896v-23.78zM85.138 65.28c0-1.713 1.398-2.937 3.007-2.937 1.61 0 2.972 1.224 2.972 2.937 0 1.75-1.363 2.973-2.972 2.973-1.608 0-3.007-1.224-3.007-2.973zm.63 5.456h4.72v14.897h-4.72V70.736zM94.37 70.736h4.72l-.104 2.448c.91-1.784 2.658-2.763 4.72-2.763 3.253 0 5.595 2.38 5.595 6.61v8.603h-4.72v-8.288c0-1.678-.803-2.623-2.482-2.623-1.888 0-3.007 1.05-3.007 2.938v7.973h-4.72V70.736zM114.163 80.038v-5.386h-2.203v-3.916h2.203v-7.764h4.686v7.764h3.81v3.916h-3.81v5.525c0 1.504.49 1.818 1.223 1.818.77 0 1.33-.42 1.643-.63l1.784 3.288c-.734.595-1.993 1.365-4.16 1.365-3.01 0-5.177-1.505-5.177-5.98z"/></g></g></g></svg>