<svg width="128" height="128" xmlns="http://www.w3.org/2000/svg"><path fill="none" d="M-1-1h130v130H-1z"/><g><g stroke="null" fill-rule="nonzero"><path fill="#8b8c8d" d="M50.69 56.206l-2.922 10.55h7.293l-2.92-10.55h-1.45zM43.79 73.632l5.29-19.263h4.675l5.29 19.262h-2.117l-1.392-4.956h-8.24l-1.39 4.956h-2.116M72.57 64.36c2.618 0 3.926-1.348 3.926-4.048s-1.32-4.05-3.953-4.05H67.56v8.1h5.01zm-5.01 1.896v7.376h-2.143V54.37h7.126c2.04 0 3.577.472 4.607 1.418 1.03.947 1.545 2.423 1.545 4.427 0 2.97-1.18 4.834-3.536 5.595l3.7 7.822h-2.364l-3.48-7.376H67.56M85.905 73.632V54.37h3.87l5.455 16.283 5.457-16.284h3.87V73.63h-2.145v-16.98h-.39L96.43 72.936h-2.395l-5.595-16.284h-.39v16.98h-2.143M117.834 56.206l-2.923 10.55h7.294l-2.922-10.55h-1.448zm-6.904 17.426l5.29-19.263h4.675l5.29 19.262h-2.116l-1.393-4.956h-8.24l-1.392 4.956h-2.115"/><path fill="#429f87" d="M24.375 69.495l6.037 9.005h9.154L28.852 62.67l-4.477 6.825M6.167 74.493l4.24-3.994 6.778 8-4.35-16.05-4.017 5.987-2.65 6.056"/><path fill="#56c5a8" d="M6.167 74.493l6.667-12.042-4.24 3.997-6.78-8.002 4.353 16.048M38.693 49.5H29.54l-5.608 8.284V49.5h-8.397v8.592l4.477 16.5 1.043 3.908h2.877v-7.25l14.76-21.75"/></g></g></svg>