<svg width="128" height="128" xmlns="http://www.w3.org/2000/svg"><path fill="none" d="M-1-1h130v130H-1z"/><g><path fill="#e44f26" d="M-1-1h130v130H-1z"/><g stroke="null"><path fill="#fff" d="M34.024 109.433q-.275-.66-.74-1.674-.44-1.017-.962-2.197t-1.125-2.416q-.577-1.262-1.098-2.36-.523-1.125-.99-2.004-.44-.878-.713-1.345-.302 3.24-.494 7.027-.192 3.76-.33 7.603h-2.607q.11-2.47.247-4.968.137-2.525.302-4.94.192-2.444.384-4.75.22-2.305.466-4.363H28.7q.74 1.207 1.59 2.854t1.703 3.46q.85 1.784 1.647 3.595.796 1.784 1.454 3.267l1.455-3.267q.795-1.81 1.646-3.595.85-1.812 1.702-3.46t1.592-2.853h2.333q.933 9.195 1.4 19.02h-2.608q-.137-3.842-.33-7.602-.19-3.788-.493-7.027-.275.467-.74 1.345-.44.88-.962 2.004-.522 1.098-1.125 2.36-.577 1.236-1.098 2.416t-.99 2.196q-.438 1.014-.712 1.673h-2.14zM54.063 110.23q.906 0 1.592-.028.714-.055 1.18-.165v-4.255q-.274-.137-.906-.22-.604-.11-1.483-.11-.576 0-1.235.083-.63.083-1.18.357-.522.247-.878.714-.357.44-.357 1.18 0 1.373.878 1.922.878.52 2.388.52zm-.22-12.792q1.538 0 2.58.412 1.07.384 1.702 1.125.66.714.934 1.73.273.988.273 2.195v8.92q-.33.056-.933.166-.577.082-1.318.164t-1.62.138q-.85.082-1.7.082-1.21 0-2.224-.247t-1.757-.77q-.74-.548-1.152-1.426t-.41-2.113q0-1.18.465-2.032.494-.85 1.318-1.372t1.922-.768 2.306-.247q.384 0 .796.054.41.027.768.11.385.054.66.11t.383.08v-.712q0-.632-.137-1.235-.137-.632-.494-1.098-.357-.494-.988-.77-.604-.3-1.592-.3-1.263 0-2.223.19-.933.166-1.4.358l-.3-2.113q.493-.22 1.646-.412 1.152-.22 2.497-.22zM68.816 97.493q.33 0 .74.055.44.028.852.11.412.055.74.137.358.055.523.11l-.438 2.223q-.302-.11-1.016-.247-.686-.164-1.784-.164-.714 0-1.427.165-.686.138-.906.193v11.995h-2.554v-13.67q.906-.328 2.25-.603 1.346-.302 3.02-.302zM79.32 104.218q.825.63 1.73 1.564.934.934 1.812 2.032.906 1.07 1.702 2.195.796 1.097 1.345 2.058h-2.993q-.576-.96-1.345-1.95-.74-1.014-1.564-1.92-.824-.933-1.675-1.702t-1.62-1.29v6.862h-2.552v-20.86l2.554-.44v13.01q.66-.658 1.455-1.454t1.563-1.62 1.455-1.564q.686-.768 1.18-1.345h2.992q-.63.686-1.372 1.51t-1.537 1.674q-.795.823-1.62 1.673l-1.51 1.565zM99.84 111.656q-.878.22-2.333.467-1.427.247-3.32.247-1.648 0-2.773-.467-1.126-.494-1.812-1.372t-.988-2.058q-.302-1.207-.302-2.662v-8.015h2.553v7.466q0 2.61.823 3.734t2.772 1.125q.412 0 .85-.028t.825-.055q.384-.055.686-.082.33-.055.468-.11v-12.05h2.552v13.86zM114.148 104.96q0-2.5-1.236-3.844t-3.293-1.345q-1.154 0-1.813.084-.63.082-1.016.192v9.003q.468.383 1.346.74t1.922.357q1.098 0 1.866-.385.796-.41 1.29-1.097.494-.714.714-1.647.22-.96.22-2.06zm2.662 0q0 1.618-.44 2.99-.41 1.373-1.234 2.36t-2.03 1.54q-1.182.547-2.72.547-1.234 0-2.195-.33-.932-.328-1.4-.63v5.71h-2.55V98.233q.905-.22 2.25-.466 1.372-.275 3.156-.275 1.647 0 2.964.522t2.25 1.482 1.428 2.36q.522 1.373.522 3.102z"/></g></g></svg>