<svg width="117" height="48" viewBox="0 0 117 48" fill="none" xmlns="http://www.w3.org/2000/svg">
<path d="M15.9314 19.4999V6.49341H11.2709L8.54092 13.5524L5.83042 6.49341H1.16992V19.4999H4.52392V11.0369L7.79992 19.4999H9.28192L12.5774 11.0369V19.4999H15.9314ZM31.6865 19.4999L26.7725 6.49341H22.5605L17.666 19.4999H21.4685L22.112 17.6279H27.2405L27.884 19.4999H31.6865ZM26.324 14.7029H23.009L24.6665 9.80841L26.324 14.7029ZM38.9066 19.4999C42.9821 19.4999 45.9266 17.0234 45.9266 12.9869C45.9266 8.95041 42.9821 6.49341 38.8871 6.49341H33.4271V19.4999H38.9066ZM38.8871 16.5749H36.7811V9.41841H38.9066C41.2856 9.41841 42.4946 10.9784 42.4946 12.9869C42.4946 14.9174 41.1686 16.5749 38.8871 16.5749ZM57.9107 19.4999V16.5749H51.7292V14.3714H57.7742V11.4464H51.7292V9.41841H57.9107V6.49341H48.3752V19.4999H57.9107ZM69.7613 19.4999V6.49341H66.4073V19.4999H69.7613ZM84.9712 19.4999V6.49341H81.5977V13.6499L76.3327 6.49341H72.8812V19.4999H76.2352V11.9729L81.7342 19.4999H84.9712Z" fill="white"/>
<path d="M18.3601 43.5001V25.4911H13.6891V35.4001L6.39912 25.4911H1.62012V43.5001H6.26412V33.0781L13.8781 43.5001H18.3601ZM27.3304 43.5001V25.4911H22.6864V43.5001H27.3304ZM40.4793 43.8241C43.8813 43.8241 46.5003 42.4471 48.4443 40.3141V33.1591H39.7503V37.2361H43.8003V38.6401C43.1523 39.1801 41.8023 39.7201 40.4793 39.7201C37.5363 39.7201 35.4573 37.4521 35.4573 34.5091C35.4573 31.5661 37.5363 29.2981 40.4793 29.2981C42.2343 29.2981 43.6113 30.4051 44.2863 31.5931L48.1743 29.5681C46.9323 27.3271 44.5023 25.1941 40.4793 25.1941C35.1063 25.1941 30.7323 28.7851 30.7323 34.5091C30.7323 40.2331 35.1063 43.8241 40.4793 43.8241ZM65.445 43.5001V39.4501H56.886V36.3991H65.256V32.3491H56.886V29.5411H65.445V25.4911H52.242V43.5001H65.445ZM84.5844 43.5001L80.9124 36.8851C82.5864 36.2911 84.5033 34.6171 84.5033 31.4851C84.5033 28.1371 82.2354 25.4911 78.2393 25.4911H69.2214V43.5001H73.8653V37.4521H76.2413L79.2654 43.5001H84.5844ZM77.5374 33.4021H73.8653V29.5411H77.5374C78.7524 29.5411 79.7784 30.2431 79.7784 31.4581C79.7784 32.7271 78.7524 33.4021 77.5374 33.4021ZM92.796 43.5001V25.4911H88.1519V43.5001H92.796ZM114.612 43.5001L107.808 25.4911H101.976L95.1986 43.5001H100.464L101.355 40.9081H108.456L109.347 43.5001H114.612ZM107.187 36.8581H102.597L104.892 30.0811L107.187 36.8581Z" fill="white"/>
</svg>
