<svg width="24" height="20" viewBox="0 0 24 20" fill="none" xmlns="http://www.w3.org/2000/svg">
<path fill-rule="evenodd" clip-rule="evenodd" d="M21.3335 0.666626H2.66683C1.73167 0.666626 0.92041 1.22417 0.549047 2.02327C0.673962 2.05078 0.795638 2.10287 0.906958 2.1808L12.0002 9.94604L23.0934 2.1808C23.2047 2.10287 23.3264 2.05078 23.4513 2.02327C23.0799 1.22417 22.2687 0.666626 21.3335 0.666626ZM23.6668 4.22069L12.5736 11.9859C12.2293 12.227 11.771 12.227 11.4267 11.9859L0.333496 4.22069V17C0.333496 18.2833 1.3835 19.3333 2.66683 19.3333H21.3335C22.6168 19.3333 23.6668 18.2833 23.6668 17V4.22069Z" fill="white"/>
</svg>
