<svg width="26" height="22" viewBox="0 0 26 22" fill="none" xmlns="http://www.w3.org/2000/svg">
<path d="M25.8332 0.500013C24.716 1.28807 23.479 1.89081 22.1698 2.28501C21.4672 1.47711 20.5334 0.904487 19.4947 0.644593C18.456 0.3847 17.3626 0.450074 16.3623 0.831875C15.3619 1.21368 14.503 1.89348 13.9016 2.77935C13.3003 3.66522 12.9855 4.71441 12.9998 5.78501V6.95168C10.9496 7.00484 8.91799 6.55013 7.08601 5.62803C5.25404 4.70594 3.67854 3.34509 2.49984 1.66668C2.49984 1.66668 -2.16683 12.1667 8.33317 16.8333C5.93045 18.4643 3.06819 19.2821 0.166504 19.1667C10.6665 25 23.4998 19.1667 23.4998 5.75001C23.4988 5.42504 23.4675 5.10087 23.4065 4.78168C24.5972 3.60742 25.4375 2.12484 25.8332 0.500013Z" fill="white"/>
</svg>
