<svg width="28" height="28" viewBox="0 0 28 28" fill="none" xmlns="http://www.w3.org/2000/svg">
<path d="M14 0.4375C6.125 0.4375 0 6.5625 0 14.4375C0 23.625 8.3125 27.5625 9.625 27.5625C10.5 27.5625 10.5 27.125 10.5 26.6875V24.5C7.4375 25.375 6.125 23.625 5.6875 22.3125C5.6875 22.3125 5.6875 21.875 4.8125 21C4.375 20.5625 2.625 19.6875 4.375 19.6875C5.6875 19.6875 6.5625 21.4375 6.5625 21.4375C7.875 23.1875 9.625 22.75 10.5 22.3125C10.5 21.4375 11.375 20.5625 11.375 20.5625C7.875 20.125 5.25 18.8125 5.25 14C5.25 12.25 5.6875 10.9375 6.5625 10.0625C6.5625 10.0625 5.6875 8.3125 6.5625 6.125C6.5625 6.125 8.75 6.125 10.5 7.875C11.8125 7 16.1875 7 17.5 7.875C19.25 6.125 21.4375 6.125 21.4375 6.125C22.3125 9.1875 21.4375 10.0625 21.4375 10.0625C22.3125 10.9375 22.75 12.25 22.75 14C22.75 18.8125 19.6875 20.125 16.625 20.5625C17.0625 21 17.5 21.875 17.5 23.1875V26.6875C17.5 27.125 17.5 27.5625 18.375 27.5625C19.6875 27.5625 28 23.625 28 14.4375C28 6.5625 21.875 0.4375 14 0.4375Z" fill="white"/>
</svg>
